# xmcd
#
# Track frame offsets: 
#        150
#        19800
#        49456
#        76491
#        100516
#        123285
#        143907
#        167601
#        188177
#        210200
#        240273
#        266098
#
# Disc length: 3857 seconds
#
# Revision: 0
# Processed by: cddbd v1.5.2PL0 Copyright (c) Steve Scherf et al.
# Submitted via: ExactAudioCopyFreeDBPlugin 1.0
#
DISCID=980f0f0c
DTITLE=Thai Bao - Tham ben nha Rong
DYEAR=2002
DGENRE=Vocal
TTITLE0=Tam hon - Huy Tien
TTITLE1=Tham ben nha Rong - Tran Hoan
TTITLE2=Thoi hoa do - Nguyen Dinh Bang
TTITLE3=Vet chan tron tren cat - Tran Tien
TTITLE4=Mua roi - Tran Hoan
TTITLE5=Xa roi mua dong - Nguyen Nam
TTITLE6=Loi Bac dan truoc luc di xa - Tran Hoan
TTITLE7=Mua xuan - Pham Minh Tuan
TTITLE8=Bien chieu - Doan Tien
TTITLE9=Mua hoa cai - Le Vinh
TTITLE10=Mua xuan ben cua so - Xuan Hong
TTITLE11=Thuyen hoa - Quang Vinh
EXTD=
EXTT0=
EXTT1=
EXTT2=
EXTT3=
EXTT4=
EXTT5=
EXTT6=
EXTT7=
EXTT8=
EXTT9=
EXTT10=
EXTT11=
PLAYORDER=
